<?xml version="1.0" standalone="no"?>
<!DOCTYPE svg PUBLIC "-//W3C//DTD SVG 20010904//EN"
 "http://www.w3.org/TR/2001/REC-SVG-20010904/DTD/svg10.dtd">
<svg version="1.0" xmlns="http://www.w3.org/2000/svg"
 width="180.000000pt" height="180.000000pt" viewBox="0 0 180.000000 180.000000"
 preserveAspectRatio="xMidYMid meet">
<metadata>
Created by potrace 1.11, written by Peter Selinger 2001-2013
</metadata>
<g transform="translate(0.000000,180.000000) scale(0.100000,-0.100000)"
fill="#000000" stroke="none">
<path d="M0 900 l0 -900 900 0 900 0 0 900 0 900 -900 0 -900 0 0 -900z m450
0 l0 -490 -85 0 -85 0 0 490 0 490 85 0 85 0 0 -490z m646 145 c136 -189 251
-342 255 -339 4 2 5 157 2 344 l-5 340 86 0 86 0 0 -490 0 -490 -85 0 -84 0
-247 345 c-136 190 -248 344 -251 342 -2 -3 -4 -158 -3 -346 l0 -341 -85 0
-85 0 0 490 0 490 84 0 84 0 248 -345z"/>
</g>
</svg>
